<?xml version="1.0" encoding="UTF-8"?><svg xmlns="http://www.w3.org/2000/svg" width="1032" height="822" style="font-family: Arial, sans-serif"><g class="path" style="cursor: move;"><path stroke="black" stroke-width="1.5" fill="none" d="M490.81,194.00L490.25,251.00"></path><path stroke="black" stroke-width="1.5" fill="white" class="arrowfront" d="M-1,0L15,5L15,-5Z" transform="translate(490.25495073290875,251.00108049135093) rotate(-89.44331733579162)"></path></g><g class="path" style="cursor: move;"><path stroke="black" stroke-width="1.5" fill="none" d="M707.83,384.30L511.73,280.75"></path><path stroke="black" stroke-width="1.5" fill="white" class="arrowfront" d="M-1,0L15,5L15,-5Z" transform="translate(511.7296149705925,280.74599787424694) rotate(27.836760037918108)"></path></g><g class="path" style="cursor: move;"><path stroke="black" stroke-width="1.5" fill="none" d="M613.00,269.25L515.00,270.69"></path><path stroke="black" stroke-width="1.5" fill="white" class="arrowfront" d="M-1,0L15,5L15,-5Z" transform="translate(514.9969781100181,270.69248729497326) rotate(-0.8455746063644878)"></path></g><g class="path" style="cursor: move;"><path stroke="black" stroke-width="1.5" fill="none" d="M841.00,391.13L750.00,391.84"></path><path stroke="black" stroke-width="1.5" fill="white" class="arrowfront" d="M-1,0L15,5L15,-5Z" transform="translate(749.9991439355019,391.838317242911) rotate(-0.4463676749660687)"></path></g><g class="path" style="cursor: move;"><path stroke="black" stroke-width="1.5" fill="none" d="M721.58,284.99L724.23,372.01"></path><path stroke="black" stroke-width="1.5" fill="white" class="arrowfront" d="M-1,0L15,5L15,-5Z" transform="translate(724.2313675702973,372.0098088721568) rotate(268.2524605821789)"></path></g><g class="path" style="cursor: move;"><path stroke="black" stroke-width="1.5" fill="none" d="M354.12,258.00L354.84,369.00"></path><path stroke="black" stroke-width="1.5" fill="white" class="arrowfront" d="M-1,0L15,5L15,-5Z" transform="translate(354.8393573376271,369.000436899026) rotate(269.6289446097821)"></path></g><g class="path" style="cursor: move;"><path stroke="black" stroke-width="1.5" fill="none" d="M229.00,389.88L330.00,389.15"></path><path stroke="black" stroke-width="1.5" fill="white" class="arrowfront" d="M-1,0L15,5L15,-5Z" transform="translate(330.0007487750549,389.15061275773604) rotate(179.58651967635956)"></path></g><g class="path" style="cursor: move;"><path stroke="black" stroke-width="1.5" fill="none" d="M375.00,389.15L467.72,389.96"></path><path stroke="black" stroke-width="1.5" fill="white" class="arrowfront" d="M-1,0L15,5L15,-5Z" transform="translate(467.72332512715616,389.95666494078813) rotate(180.50127515922208)"></path></g><g class="path" style="cursor: move;"><path stroke="black" stroke-width="1.5" fill="none" d="M490.40,286.00L492.19,370.14"></path><path stroke="black" stroke-width="1.5" fill="white" class="arrowfront" d="M-1,0L15,5L15,-5Z" transform="translate(492.18645625069445,370.14319921569825) rotate(268.785052408613)"></path></g><g class="path" style="cursor: move;"><path stroke="black" stroke-width="1.5" fill="none" d="M705.00,391.86L517.72,390.31"></path><path stroke="black" stroke-width="1.5" fill="white" class="arrowfront" d="M-1,0L15,5L15,-5Z" transform="translate(517.7212739282772,390.3146533793965) rotate(0.4724675978788861)"></path></g><g transform="translate(492.72227172538686,390.1384247288099)" style="cursor: move; touch-action: none;"><path fill-opacity="0.7" stroke-width="2" z-index="1" d="M 0 0 m 20, 0 a 20,15 0 1,1 -40,0 a 20,15 0 1,1 40,0" fill="#00a2e0" stroke="#000000"></path><rect class="textbg" fill="#ffffff" width="71.94844055175781" height="17.600000381469727" x="-35.57500076293945" y="20.600000381469727"></rect><text class="nodelabel" y="35" text-anchor="middle">Popularity</text><path d="M-2,-6L2,-6L2,6L-2,6Z" fill="#000000"></path></g><g transform="translate(354,243)" style="cursor: move; touch-action: none;"><path fill-opacity="0.7" stroke-width="2" z-index="1" d="M 0 0 m 20, 0 a 20,15 0 1,1 -40,0 a 20,15 0 1,1 40,0" fill="#00a2e0" stroke="#00a2e0"></path><rect class="textbg" fill="#ffffff" width="95.07500457763672" height="17.600000381469727" x="-47.9375" y="20.600000381469727"></rect><text class="nodelabel" y="35" text-anchor="middle">Acousticness</text></g><g transform="translate(355,389)" style="cursor: move; touch-action: none;"><path fill-opacity="0.7" stroke-width="2" z-index="1" d="M 0 0 m 20, 0 a 20,15 0 1,1 -40,0 a 20,15 0 1,1 40,0" fill="#00a2e0" stroke="#00a2e0"></path><rect class="textbg" fill="#ffffff" width="91.625" height="17.600000381469727" x="-45.8125" y="20.600000381469727"></rect><text class="nodelabel" y="35" text-anchor="middle">Speechiness</text></g><g transform="translate(209,390)" style="cursor: move; touch-action: none;"><path fill-opacity="0.7" stroke-width="2" z-index="1" d="M 0 0 m 20, 0 a 20,15 0 1,1 -40,0 a 20,15 0 1,1 40,0" fill="#00a2e0" stroke="#00a2e0"></path><rect class="textbg" fill="#ffffff" width="121.8375015258789" height="17.600000381469727" x="-60.91875076293945" y="20.600000381469727"></rect><text class="nodelabel" y="35" text-anchor="middle">Instrumentalness</text></g><g transform="translate(491,179)" style="cursor: move; touch-action: none;"><path fill-opacity="0.7" stroke-width="2" z-index="1" d="M 0 0 m 20, 0 a 20,15 0 1,1 -40,0 a 20,15 0 1,1 40,0" fill="#00a2e0" stroke="#00a2e0"></path><rect class="textbg" fill="#ffffff" width="69.4000015258789" height="17.600000381469727" x="-34.70000076293945" y="20.600000381469727"></rect><text class="nodelabel" y="35" text-anchor="middle">Loudness</text></g><g transform="translate(490,271)" style="cursor: move; touch-action: none;"><path fill-opacity="0.7" stroke-width="2" z-index="1" d="M 0 0 m 20, 0 a 20,15 0 1,1 -40,0 a 20,15 0 1,1 40,0" fill="#00a2e0" stroke="#00a2e0"></path><rect class="textbg" fill="#ffffff" width="87.95625305175781" height="17.600000381469727" x="-43.58124923706055" y="20.600000381469727"></rect><text class="nodelabel" y="35" text-anchor="middle">Danceability</text></g><g transform="translate(633,269)" style="cursor: move; touch-action: none;"><path fill-opacity="0.7" stroke-width="2" z-index="1" d="M 0 0 m 20, 0 a 20,15 0 1,1 -40,0 a 20,15 0 1,1 40,0" fill="#00a2e0" stroke="#00a2e0"></path><rect class="textbg" fill="#ffffff" width="48.025001525878906" height="17.600000381469727" x="-24.012500762939453" y="20.600000381469727"></rect><text class="nodelabel" y="35" text-anchor="middle">Tempo</text></g><g transform="translate(725,392)" style="cursor: move; touch-action: none;"><path fill-opacity="0.7" stroke-width="2" z-index="1" d="M 0 0 m 20, 0 a 20,15 0 1,1 -40,0 a 20,15 0 1,1 40,0" fill="#00a2e0" stroke="#00a2e0"></path><rect class="textbg" fill="#ffffff" width="51.49531173706055" height="17.600000381469727" x="-25.350000381469727" y="20.600000381469727"></rect><text class="nodelabel" y="35" text-anchor="middle">Energy</text></g><g transform="translate(721,270)" style="cursor: move; touch-action: none;"><path fill-opacity="0.7" stroke-width="2" z-index="1" d="M 0 0 m 20, 0 a 20,15 0 1,1 -40,0 a 20,15 0 1,1 40,0" fill="#00a2e0" stroke="#00a2e0"></path><rect class="textbg" fill="#ffffff" width="63.150001525878906" height="17.600000381469727" x="-31.575000762939453" y="20.600000381469727"></rect><text class="nodelabel" y="35" text-anchor="middle">Liveness</text></g><g transform="translate(861,391)" style="cursor: move; touch-action: none;"><path fill-opacity="0.7" stroke-width="2" z-index="1" d="M 0 0 m 20, 0 a 20,15 0 1,1 -40,0 a 20,15 0 1,1 40,0" fill="#00a2e0" stroke="#00a2e0"></path><rect class="textbg" fill="#ffffff" width="57.4375" height="17.600000381469727" x="-29.118749618530273" y="20.600000381469727"></rect><text class="nodelabel" y="35" text-anchor="middle">Valence</text></g></svg>